<svg xmlns="http://www.w3.org/2000/svg" xmlns:xlink="http://www.w3.org/1999/xlink" version="1.1" x="0px" y="0px" viewBox="-210 324.8 100 72.2" enable-background="new -210 324.8 100 72.2" xml:space="preserve"><path d="M-131.9,365.6c5.2,0,9.4-4.3,9.4-9.5c0-5.3-4.2-9.5-9.4-9.5c-5.2,0-9.4,4.3-9.4,9.5C-141.3,361.3-137.5,365.6-131.9,365.6z   M-137.2,383.5c-6.3,0-9.7-1.6-12.6-3.1c-2.8-1.4-5.3-2.6-10.5-2.6c-5.2,0-7.6,1.2-10.5,2.6c-2.9,1.4-6.3,3.1-12.6,3.1  c-6.3,0-9.7-1.6-12.6-3.1c-2.6-1.3-4.9-2.4-9.4-2.6c-0.6,0-1.1-0.5-1.1-1.1v-2.6c0-0.6,0.5-1.1,1.2-1.1c5.6,0.2,8.7,1.7,11.4,3  c2.8,1.4,5.3,2.6,10.5,2.6c5.2,0,7.6-1.2,10.5-2.6c2.9-1.4,6.3-3.1,12.6-3.1c6.3,0,9.7,1.6,12.6,3.1c2.8,1.4,5.3,2.6,10.5,2.6  c5.2,0,7.6-1.2,10.5-2.6c2.8-1.3,5.8-2.9,11.4-3c0.6,0,1.2,0.5,1.2,1.1v2.6c0,0.6-0.5,1.1-1.1,1.1c-4.5,0.2-6.8,1.3-9.4,2.6  C-127.5,381.8-130.9,383.5-137.2,383.5z M-169.2,341.6c-1.5-3.6,1.1-6.5,3.1-7l28.2-5.2c0.2,0,0.4,0,0.6,0c3,0,5.4,2.4,5.4,5.4  c0,2.7-1.9,4.9-4.6,5.4l-18.2,3.4l16.2,29.1c-4.2-0.2-6.5-1.3-9-2.5c-2.9-1.4-6.3-3.1-12.6-3.1c-6.3,0-9.7,1.6-12.6,3.1  c-2.8,1.4-5.3,2.6-10.5,2.6c-2.6,0-4.5-0.3-6.1-0.8l22.9-13.6l4.9-2.7l-7.4-13.4C-169,342-169.1,341.8-169.2,341.6z M-137.2,393  c-6.3,0-9.7-1.6-12.6-3.1c-2.8-1.4-5.3-2.6-10.5-2.6c-5.2,0-7.6,1.2-10.5,2.6c-2.9,1.4-6.3,3.1-12.6,3.1c-6.3,0-9.7-1.6-12.6-3.1  c-2.6-1.3-4.9-2.4-9.4-2.6c-0.6,0-1.1-0.5-1.1-1.1v-2.6c0-0.6,0.5-1.1,1.2-1.1c5.6,0.2,8.7,1.7,11.4,3c2.8,1.4,5.3,2.6,10.5,2.6  c5.2,0,7.6-1.2,10.5-2.6c2.9-1.4,6.3-3.1,12.6-3.1c6.3,0,9.7,1.6,12.6,3.1c2.8,1.4,5.3,2.6,10.5,2.6c5.2,0,7.6-1.2,10.5-2.6  c2.8-1.3,5.8-2.9,11.4-3c0.6,0,1.2,0.5,1.2,1.1v2.6c0,0.6-0.5,1.1-1.1,1.1c-4.5,0.2-6.8,1.3-9.4,2.6  C-127.5,391.4-130.9,393-137.2,393z"></path></svg>