<svg xmlns="http://www.w3.org/2000/svg" xmlns:xlink="http://www.w3.org/1999/xlink" version="1.1" x="0px" y="0px" viewBox="0 0 100 100" enable-background="new 0 0 100 100" xml:space="preserve"><path fill="#000000" d="M27.417,17.313l-0.007-5.481c0-1.059,3.027-2.005,7.776-2.005c4.748,0,7.768,1.092,7.768,1.962l0.007,5.381  c0,1.063-0.466,1.474-1.706,1.765l-0.387,0.09v2.502l-11.364,0.933v-3.435l-0.386-0.09C28.21,18.722,27.417,18.211,27.417,17.313z   M41.073,36.098c0-1.082,0.361-2.139,1.02-2.996v-8.367l-19.75,1.62c-1.729,0.129-2.514,0.771-2.898,2.374l-7.427,27.833  c-0.144,0.695-0.022,1.315,0.376,1.867c0.904,1.251,3.307,2.158,6.766,2.555c3.229,0.371,7.336,0.448,10.555,0.475  c0.908,0.009,1.643,0.754,1.635,1.662c-0.008,0.901-0.748,1.635-1.648,1.635c-8.842-0.073-14.673-0.487-17.441-2.281l-1.781,17.878  l0.002,5.096c0,1.651,4.369,4.726,13.938,4.726c9.566,0,13.937-3.074,13.937-4.726v-5.146l-2.36-17.682h2.488  c2.262,0,3.611-1.35,3.611-3.611V47.098c-0.658-0.856-1.02-1.913-1.02-2.996V36.098z M72.583,17.313l0.007-5.481  c0-1.059-3.027-2.005-7.776-2.005c-4.748,0-7.768,1.092-7.768,1.962l-0.007,5.381c0,1.063,0.466,1.474,1.706,1.765l0.387,0.09v2.502  l11.364,0.933v-3.435l0.386-0.09C71.79,18.722,72.583,18.211,72.583,17.313z M58.927,44.102c0,1.083-0.361,2.14-1.02,2.996v11.911  c0,2.262,1.35,3.611,3.611,3.611h2.488l-2.36,17.682v5.146c0,1.651,4.37,4.726,13.937,4.726c9.568,0,13.938-3.074,13.938-4.726  l0.002-5.096l-1.781-17.878c-2.769,1.794-8.6,2.208-17.441,2.281c-0.9,0-1.641-0.733-1.648-1.635  c-0.008-0.908,0.727-1.653,1.635-1.662c3.219-0.026,7.326-0.104,10.555-0.475c3.459-0.396,5.861-1.304,6.766-2.555  c0.398-0.552,0.52-1.172,0.376-1.867l-7.427-27.833c-0.385-1.603-1.169-2.245-2.898-2.374l-19.75-1.62v8.367  c0.658,0.857,1.02,1.914,1.02,2.996V44.102z M54.001,33.781h-8.003c-1.277,0-2.317,1.039-2.317,2.316v8.004  c0,1.277,1.04,2.317,2.317,2.317h8.003c1.277,0,2.317-1.04,2.317-2.317v-8.004C56.318,34.82,55.278,33.781,54.001,33.781z   M45.63,31.223c0.164,0.047,0.334,0.071,0.502,0.071h7.736c0.168,0,0.337-0.024,0.502-0.071c0.777-0.223,1.319-0.942,1.319-1.751  v-0.976c0-1.004-0.817-1.821-1.821-1.821h-7.736c-1.004,0-1.822,0.817-1.822,1.821v0.976C44.31,30.28,44.853,31.001,45.63,31.223z   M54.37,48.977c-0.165-0.047-0.334-0.07-0.502-0.07h-7.736c-0.168,0-0.338,0.023-0.504,0.071c-0.775,0.222-1.318,0.941-1.318,1.75  v0.976c0,1.005,0.818,1.822,1.822,1.822h7.736c1.004,0,1.821-0.817,1.821-1.822v-0.976C55.689,49.919,55.146,49.199,54.37,48.977z"></path></svg>